<svg xmlns="http://www.w3.org/2000/svg" viewBox="0 0 900 220" role="img" aria-labelledby="title desc">
  <title id="title">dent.hand</title>
  <desc id="desc">Dent Hand wordmark with three overlapping speech bubbles.</desc>
  <g transform="translate(8 20)">
    <path d="M72 8h112a58 58 0 0 1 58 58v39a58 58 0 0 1-58 58h-61l-52 38 13-38H72a58 58 0 0 1-58-58V66A58 58 0 0 1 72 8Z" fill="#839a42"/>
    <path d="M142 74h93a45 45 0 0 1 45 45v27a45 45 0 0 1-45 45h-37l-37 25 9-25h-28a45 45 0 0 1-45-45v-27a45 45 0 0 1 45-45Z" fill="#8f161a"/>
    <path d="M215 42h66a32 32 0 0 1 32 32v18a32 32 0 0 1-32 32h-22l-26 18 6-18h-24a32 32 0 0 1-32-32V74a32 32 0 0 1 32-32Z" fill="#8ca6e8"/>
  </g>
  <text x="330" y="149" fill="#fffdf7" font-family="Georgia, 'Times New Roman', serif" font-size="118" font-weight="700" letter-spacing="-7">dent</text>
  <text x="548" y="149" fill="#839a42" font-family="Georgia, 'Times New Roman', serif" font-size="118" font-weight="700" letter-spacing="-7">.hand</text>
</svg>
